<?xml version="1.0" standalone="no"?>
<!DOCTYPE svg PUBLIC "-//W3C//DTD SVG 20010904//EN"
 "http://www.w3.org/TR/2001/REC-SVG-20010904/DTD/svg10.dtd">
<svg version="1.0" xmlns="http://www.w3.org/2000/svg"
 width="2048.000000pt" height="2048.000000pt" viewBox="0 0 2048.000000 2048.000000"
 preserveAspectRatio="xMidYMid meet">
<metadata>
Created by potrace 1.14, written by Peter Selinger 2001-2017
</metadata>
<g transform="translate(0.000000,2048.000000) scale(0.100000,-0.100000)"
fill="#000000" stroke="none">
<path d="M0 10240 l0 -10240 390 0 390 0 6 28 c7 30 32 62 47 62 6 0 19 7 29
17 11 9 18 11 18 5 0 -7 9 -12 21 -12 25 0 56 -35 64 -73 l7 -27 9754 0 9754
0 0 10240 0 10240 -10240 0 -10240 0 0 -10240z m13191 10000 c26 -14 25 -61
-1 -78 -37 -23 -81 19 -60 58 8 15 21 25 38 29 2 1 12 -4 23 -9z m647 -62 c17
-17 15 -42 -6 -61 -16 -15 -20 -15 -40 -1 -35 24 -23 74 18 74 9 0 21 -5 28
-12z m-6740 -100 c4 -21 -37 -36 -48 -17 -13 20 1 40 24 37 11 -2 22 -10 24
-20z m12605 -66 c29 -25 19 -72 -21 -100 l-33 -23 -35 26 c-30 23 -35 32 -29
54 3 14 17 36 31 49 28 24 54 23 87 -6z m-6727 -642 c31 0 72 -61 64 -95 -1
-5 -3 -16 -3 -23 0 -8 -18 -25 -39 -38 -21 -13 -38 -29 -38 -34 0 -5 -10 -1
-22 9 -13 10 -36 30 -52 43 -24 20 -27 29 -22 55 9 38 33 68 64 77 12 4 22 13
23 19 0 9 2 8 6 0 2 -7 11 -13 19 -13z m-1970 -38 c28 -19 25 -45 -9 -71 -33
-26 -76 36 -45 67 13 13 38 15 54 4z m2827 -73 c13 -12 20 -32 21 -59 0 -34
-4 -46 -24 -60 -14 -11 -33 -26 -43 -35 -17 -15 -21 -14 -61 19 -43 35 -63 71
-45 82 5 3 9 13 9 24 0 10 15 27 33 39 37 24 78 20 110 -10z m-11294 -399 c28
0 53 -35 53 -75 0 -20 -2 -37 -3 -39 -2 -1 -20 -14 -40 -28 -39 -29 -44 -28
-101 25 -34 32 -11 89 48 123 10 6 21 8 22 3 2 -5 12 -9 21 -9z m10029 -124
c21 -21 25 -34 20 -79 -1 -10 -20 -31 -43 -46 l-43 -29 -43 38 c-41 35 -42 38
-33 71 12 41 67 82 98 73 12 -3 31 -16 44 -28z m4775 1 c29 -34 19 -75 -24
-100 -32 -18 -51 -14 -84 19 -22 22 -12 63 23 91 30 25 56 22 85 -10z m-10042
-43 c6 -7 16 -11 21 -8 5 3 25 -10 44 -30 46 -48 47 -91 1 -133 l-33 -30 -38
25 c-21 13 -41 32 -43 43 -3 10 -9 16 -14 13 -5 -3 -9 0 -9 7 0 7 -11 27 -25
45 -30 39 -26 76 8 91 25 11 69 0 88 -23z m10652 -42 c9 -8 17 -29 17 -46 0
-24 -8 -36 -34 -53 -33 -21 -34 -21 -62 -3 -36 24 -46 50 -30 81 23 46 69 55
109 21z m-6003 -52 c13 -23 0 -54 -29 -69 -14 -8 -23 -5 -40 10 -25 24 -26 28
-5 57 19 28 60 29 74 2z m-5986 -63 c16 -25 -16 -56 -38 -37 -19 15 -20 32 -4
48 15 15 28 11 42 -11z m1166 -145 c13 4 70 -46 70 -63 0 -5 4 -17 9 -27 5 -9
16 -35 26 -57 l17 -39 -28 -24 c-23 -20 -35 -23 -69 -19 -26 4 -46 2 -53 -5
-9 -9 -12 -8 -12 3 0 7 -20 29 -45 47 -43 33 -73 86 -54 97 5 4 9 14 9 24 0
20 38 56 69 66 12 3 21 11 21 18 0 6 6 3 13 -7 8 -11 20 -17 27 -14z m5566
-37 c3 -19 3 -38 0 -44 -4 -5 12 -29 35 -52 37 -38 41 -46 35 -78 -3 -21 -15
-43 -28 -53 -13 -10 -29 -23 -36 -29 -10 -8 -23 -4 -53 16 -52 34 -60 57 -41
116 14 44 14 48 -7 82 -17 29 -20 40 -11 56 27 52 95 43 106 -14z m-3435 -93
c6 -17 4 -27 -11 -42 -25 -25 -32 -25 -61 -1 -22 18 -23 19 -5 45 22 34 65 33
77 -2z m747 -86 c39 -38 31 -86 -21 -122 l-38 -25 -35 22 c-57 35 -65 89 -18
130 39 34 73 32 112 -5z m4433 -28 c27 -29 49 -79 49 -113 0 -37 -45 -77 -79
-68 -38 9 -47 19 -65 73 -21 64 -20 86 4 110 26 26 64 25 91 -2z m-4862 -58
c53 0 76 -99 31 -129 -14 -9 -32 -24 -42 -33 -9 -9 -18 -13 -20 -10 -2 4 -18
18 -36 31 -44 31 -53 58 -32 95 17 31 72 69 78 55 2 -5 12 -9 21 -9z m3819
-32 c20 -20 14 -55 -12 -71 -21 -14 -26 -14 -45 -1 -25 18 -27 46 -5 68 18 19
45 21 62 4z m4296 -224 c21 -20 20 -27 -5 -50 -15 -14 -24 -16 -37 -8 -22 14
-27 41 -12 59 16 19 35 19 54 -1z m-7034 -413 c12 -24 4 -48 -22 -62 -16 -9
-25 -7 -41 10 -18 17 -19 24 -9 46 14 31 56 34 72 6z m-10198 -240 c16 -16 21
-36 19 -77 -1 -12 -17 -31 -42 -47 l-40 -27 -39 25 c-44 28 -55 51 -40 89 11
29 24 44 55 62 22 12 58 2 87 -25z m7864 -241 c27 0 73 -44 74 -70 0 -9 5 -21
12 -28 9 -9 9 -15 0 -24 -7 -7 -12 -21 -12 -33 0 -14 -14 -28 -44 -45 -25 -13
-49 -33 -55 -44 -7 -15 -10 -17 -10 -5 -1 8 -18 25 -39 37 -21 11 -45 29 -54
39 -19 23 -32 73 -18 73 5 0 10 10 10 23 0 25 29 55 73 74 15 7 28 18 28 25 1
7 3 5 6 -4 3 -11 14 -18 29 -18z m-4605 -99 c9 -9 18 -25 19 -36 6 -51 -1 -65
-40 -90 l-39 -25 -36 22 c-42 24 -59 58 -46 91 24 61 96 81 142 38z m3207
-493 c30 -30 -11 -85 -44 -57 -25 21 -11 69 21 69 6 0 16 -5 23 -12z m5590
-380 c21 -21 14 -64 -13 -82 -23 -15 -27 -15 -50 0 -14 9 -25 26 -25 37 0 44
59 74 88 45z m-6375 -28 c35 0 96 -65 97 -102 0 -14 6 -29 13 -31 9 -4 9 -7
-1 -15 -7 -5 -14 -20 -15 -34 -2 -27 -29 -54 -84 -81 -17 -9 -34 -26 -38 -37
-7 -22 -25 -27 -25 -7 0 6 -27 29 -60 50 -37 22 -65 48 -71 65 -6 15 -15 35
-20 45 -7 12 -5 17 5 17 7 0 16 14 20 32 7 37 52 82 91 92 14 4 29 14 32 23 6
14 7 14 18 -1 7 -9 24 -16 38 -16z m9445 -58 c12 -22 5 -42 -22 -63 -20 -16
-22 -16 -48 3 -35 24 -35 42 -3 74 20 20 29 23 45 14 11 -6 24 -18 28 -28z
m-13550 -159 c2 -12 -6 -26 -21 -36 -23 -15 -26 -14 -46 4 -26 25 -26 34 0 60
18 18 23 19 42 6 12 -8 23 -23 25 -34z m16177 -84 c0 -7 -8 -15 -17 -17 -18
-3 -25 18 -11 32 10 10 28 1 28 -15z m370 -40 c0 -7 -8 -15 -17 -17 -18 -3
-25 18 -11 32 10 10 28 1 28 -15z m-17568 -415 c20 -20 31 -57 23 -78 -3 -11
-22 -30 -41 -41 l-34 -22 -32 21 c-18 12 -35 28 -38 38 -23 68 73 132 122 82z
m2771 -206 c18 -18 15 -43 -8 -63 -19 -17 -21 -17 -40 0 -32 29 -20 75 20 75
9 0 21 -5 28 -12z m410 -20 c19 -19 14 -55 -10 -72 -19 -13 -25 -14 -43 -2
-26 17 -31 49 -10 70 19 19 46 21 63 4z m11811 -46 c25 -24 18 -71 -15 -97
-28 -22 -30 -22 -58 -7 -52 31 -54 81 -3 112 30 19 51 17 76 -8z m-13599 -202
c26 -26 25 -36 -6 -65 -21 -19 -30 -22 -50 -14 -38 14 -41 12 -54 -26 -13 -39
-50 -56 -75 -35 -37 31 3 87 54 77 25 -5 31 -2 41 24 12 28 45 59 62 59 5 0
17 -9 28 -20z m2403 -120 c23 -39 13 -80 -26 -106 l-32 -20 -37 24 c-27 17
-38 32 -38 49 0 34 16 60 46 76 36 19 68 11 87 -23z m-2999 -159 c47 -42 41
-99 -16 -136 l-41 -27 -41 29 c-62 43 -58 105 9 144 33 19 59 16 89 -10z
m-272 -185 c7 -11 12 -24 13 -28 0 -3 3 -10 8 -14 14 -15 7 -58 -15 -81 -36
-38 -64 -30 -88 25 -12 26 -22 58 -22 71 -1 54 78 74 104 27z m16104 -146 c53
0 78 -98 34 -131 -14 -10 -32 -24 -40 -31 -9 -8 -20 -10 -25 -5 -6 4 -25 20
-43 35 -31 25 -33 31 -27 64 5 27 16 43 43 61 21 13 39 21 40 16 2 -5 10 -9
18 -9z m-15980 -131 c29 -32 22 -76 -17 -108 l-34 -29 -38 31 c-34 26 -38 34
-33 60 14 70 78 94 122 46z m8832 1 c31 0 63 -58 55 -101 -3 -15 -21 -34 -46
-49 l-42 -26 -35 24 c-45 30 -53 45 -45 85 10 44 69 95 90 76 5 -5 15 -9 23
-9z m1083 -57 c13 -36 2 -65 -35 -89 -32 -22 -32 -22 -59 -2 -22 16 -27 27
-27 63 0 35 5 47 27 63 24 17 29 18 55 4 16 -8 34 -25 39 -39z m7615 23 c0 0
7 -11 16 -24 21 -32 12 -64 -26 -88 l-32 -22 -34 28 c-31 25 -33 30 -24 61 11
37 48 62 79 53 11 -4 20 -7 21 -8z m-326 -215 c12 -24 6 -42 -19 -58 -15 -10
-23 -8 -40 8 -12 11 -20 23 -18 27 2 4 7 15 10 25 9 23 54 22 67 -2z m-1871
-431 c27 0 54 -36 53 -70 -1 -38 -5 -44 -46 -68 l-34 -20 -36 24 c-34 23 -41
37 -37 74 2 20 75 84 79 71 2 -6 12 -11 21 -11z m-8049 -149 c7 -15 6 -24 -6
-36 -31 -31 -82 6 -55 39 18 22 48 20 61 -3z m7640 -130 c21 -41 -21 -81 -58
-55 -26 18 -28 37 -6 58 21 22 51 20 64 -3z m-10732 -167 c45 -8 102 -71 102
-114 0 -15 7 -33 15 -40 13 -11 13 -15 3 -22 -11 -6 -11 -10 0 -17 11 -7 11
-9 -2 -14 -9 -4 -16 -18 -16 -32 0 -14 -5 -25 -11 -25 -6 0 -22 -14 -36 -31
-15 -17 -37 -35 -50 -40 -12 -5 -32 -23 -43 -41 -13 -22 -20 -27 -20 -15 0 13
-8 17 -36 17 -41 0 -72 -14 -96 -44 l-18 -21 0 23 c0 12 -4 22 -10 22 -12 0
-118 80 -144 109 -11 12 -16 29 -13 41 4 16 -1 24 -20 33 l-26 12 24 5 c13 3
24 12 24 20 0 40 56 105 128 149 20 12 37 30 37 39 1 15 2 15 15 -1 9 -13 21
-17 37 -13 86 24 98 30 99 50 1 14 4 11 10 -11 8 -28 16 -34 47 -39z m6801
-164 c10 0 28 -11 40 -24 29 -30 32 -96 6 -111 -10 -5 -30 -20 -45 -32 -26
-21 -28 -21 -49 -5 -75 56 -74 56 -65 97 7 29 20 46 49 67 22 14 42 22 43 17
2 -5 12 -9 21 -9z m-2667 -37 c26 -23 23 -59 -7 -79 -23 -15 -27 -15 -50 0
-32 21 -33 59 -3 80 28 20 37 20 60 -1z m-2268 -63 c17 -16 9 -60 -15 -79 -23
-19 -24 -19 -51 1 -33 23 -36 50 -7 79 20 20 51 19 73 -1z m10219 -228 c9 -8
17 -29 17 -46 0 -24 -8 -36 -33 -52 l-33 -22 -33 27 c-29 23 -32 32 -27 57 7
33 51 65 75 56 9 -3 24 -12 34 -20z m-16771 -86 c10 -12 17 -36 18 -53 0 -27
-7 -37 -37 -56 l-38 -24 -32 21 c-18 12 -35 28 -38 36 -9 28 10 70 40 89 34
20 62 16 87 -13z m2677 -196 c10 0 28 -11 41 -25 28 -30 32 -93 6 -107 -9 -5
-28 -19 -43 -32 l-27 -23 -43 30 c-53 38 -60 57 -36 104 17 36 75 79 81 62 2
-5 12 -9 21 -9z m5174 -261 c12 -1 29 -2 37 -3 17 -1 64 -46 80 -76 5 -10 10
-28 10 -39 0 -11 7 -24 16 -29 15 -8 15 -11 -5 -31 -15 -15 -20 -28 -15 -45 4
-19 1 -26 -15 -31 -12 -3 -21 -11 -21 -16 0 -5 -6 -9 -13 -9 -21 0 -88 -50
-97 -73 l-9 -22 -7 23 c-3 12 -10 22 -16 22 -13 0 -66 38 -111 79 -25 24 -35
41 -31 53 3 11 -1 20 -10 24 -22 8 -20 21 4 27 14 3 20 14 20 31 0 29 59 96
84 96 8 0 27 13 43 29 25 25 28 26 31 10 2 -11 12 -20 25 -20z m3242 -10 c31
-6 47 -47 41 -105 -5 -40 -2 -55 11 -65 21 -18 42 -67 36 -88 -2 -9 -18 -24
-34 -33 -28 -16 -32 -16 -55 -2 -13 9 -24 12 -25 8 -2 -30 -18 40 -18 83 -1
44 -6 57 -32 84 -44 45 -34 91 26 125 11 6 22 8 25 4 3 -4 14 -9 25 -11z
m2305 -78 c0 -5 -8 -19 -19 -32 -16 -21 -22 -22 -45 -11 -33 15 -33 28 2 40
35 13 62 14 62 3z m-1979 -173 c-63 -21 -76 -17 -32 10 20 12 42 17 59 14 24
-5 21 -7 -27 -24z m2793 -93 c-8 -56 -55 -101 -86 -82 -29 19 -32 46 -9 78 12
15 21 34 21 41 0 9 3 9 10 -2 8 -13 10 -12 10 3 0 10 10 21 23 26 30 12 40 -8
31 -64z m4554 -142 c29 -32 28 -77 -3 -115 -18 -21 -25 -41 -25 -70 0 -49 -26
-109 -45 -102 -7 3 -16 1 -19 -5 -4 -6 -20 -2 -41 10 -29 18 -35 27 -35 56 0
19 7 47 16 62 13 22 14 37 7 72 -21 102 77 166 145 92z m-1725 -162 c18 -20
27 -61 19 -83 -4 -9 -23 -27 -42 -40 l-35 -24 -32 21 c-17 11 -36 30 -42 42
-32 69 83 142 132 84z m-465 -247 c33 -22 31 -80 -3 -96 -14 -6 -25 -15 -25
-20 0 -16 -60 25 -66 45 -9 29 3 63 28 75 32 15 40 14 66 -4z m-10568 -1165
c14 -24 16 -21 -37 -42 -38 -15 -42 -15 -47 0 -4 9 1 26 9 39 20 30 60 32 75
3z m-4108 -37 c34 -34 26 -81 -18 -109 l-35 -23 -35 26 c-47 36 -49 74 -7 112
29 26 65 24 95 -6z m190 -156 c10 -12 17 -35 18 -53 0 -25 -7 -36 -34 -52 -42
-26 -45 -26 -80 2 -22 18 -29 32 -28 56 2 71 80 100 124 47z m6188 4 c0 -5 10
-10 23 -10 42 0 102 -89 77 -114 -5 -5 -10 -19 -10 -30 0 -14 -14 -29 -41 -44
-22 -13 -42 -29 -45 -37 -4 -10 -22 -1 -64 31 -60 45 -74 72 -56 109 5 11 12
27 16 35 7 15 79 69 93 70 4 0 7 -4 7 -10z m10958 -59 c43 -53 36 -105 -19
-144 l-39 -27 -41 27 c-53 35 -65 66 -42 106 35 59 108 79 141 38z m-3685 -33
c19 -38 13 -60 -24 -87 -29 -21 -30 -21 -59 -4 -51 30 -53 85 -4 114 36 22 70
13 87 -23z m-5771 -23 c9 9 47 -41 49 -65 4 -51 -2 -66 -33 -85 -18 -10 -37
-24 -41 -31 -6 -11 -11 -11 -25 1 -81 65 -81 65 -77 96 5 36 19 56 59 80 20
12 35 15 46 9 10 -5 19 -7 22 -5z m7337 -35 c21 0 46 -26 59 -59 12 -32 -11
-77 -49 -96 -16 -9 -29 -20 -29 -25 0 -16 -88 49 -95 70 -9 28 20 89 49 99 13
6 28 15 32 22 6 10 9 10 12 1 2 -7 12 -12 21 -12z m-10339 -20 c11 -20 -13
-60 -35 -60 -15 0 -45 27 -45 41 0 5 9 18 20 29 21 21 45 18 60 -10z m-6034
-305 c4 -8 0 -22 -7 -31 -11 -13 -14 -13 -27 0 -17 17 -9 46 13 46 9 0 18 -7
21 -15z m3444 -381 c0 -15 -55 -74 -69 -74 -3 0 -19 11 -35 23 l-29 23 54 21
c68 26 79 27 79 7z m1660 -29 c0 -8 -7 -15 -15 -15 -8 0 -15 7 -15 15 0 8 7
15 15 15 8 0 15 -7 15 -15z m380 -58 c0 -30 -30 -49 -53 -32 -38 27 -5 86 35
64 10 -5 18 -20 18 -32z m6190 -106 c0 -27 -20 -42 -42 -30 -23 12 -23 35 -1
47 22 13 43 4 43 -17z m-10418 -55 c28 -33 22 -65 -19 -102 l-36 -33 -39 30
c-35 28 -43 40 -39 63 1 4 -3 14 -10 22 -8 10 -5 15 15 20 14 3 26 10 26 14 0
27 77 16 102 -14z m1393 -44 c-6 -4 -22 -18 -36 -30 -23 -20 -28 -21 -38 -8
-11 13 -7 18 21 30 36 16 68 21 53 8z m13230 -32 c28 -11 46 -47 39 -78 -3
-11 -19 -29 -35 -41 l-30 -22 -34 21 c-48 29 -51 70 -9 108 28 25 33 26 69 12z
m-14397 -88 c4 -26 -22 -40 -43 -22 -11 9 -12 17 -4 32 13 25 43 19 47 -10z
m4650 -94 c28 -28 -6 -75 -40 -57 -30 16 -16 69 17 69 6 0 16 -5 23 -12z
m10188 -239 c23 -26 22 -78 -2 -96 -10 -7 -26 -19 -35 -27 -14 -12 -21 -9 -54
19 -36 30 -38 34 -29 65 10 36 57 70 86 62 9 -2 24 -13 34 -23z m-9719 -56
c13 -19 12 -23 -8 -41 -17 -17 -25 -19 -40 -9 -24 15 -25 53 -1 66 22 13 32
10 49 -16z m8855 -62 c33 -32 27 -74 -16 -99 -33 -20 -33 -20 -65 0 -44 28
-46 69 -5 106 28 25 56 23 86 -7z m-8377 -31 c0 -18 -6 -26 -23 -28 -27 -4
-40 22 -22 44 19 22 45 13 45 -16z m8650 -52 c6 -15 1 -26 -16 -39 -21 -15
-25 -16 -46 -2 -29 19 -30 47 -1 67 25 18 53 7 63 -26z m-10085 -3 c0 5 9 0
20 -10 13 -12 20 -31 20 -54 0 -30 -6 -40 -35 -58 l-34 -23 -35 33 c-42 40
-40 65 7 102 23 18 35 21 44 13 7 -6 13 -7 13 -3z m10121 -166 c7 -14 5 -23
-11 -39 -19 -19 -22 -19 -45 -4 -31 20 -32 48 -2 61 27 12 44 7 58 -18z
m-7987 -155 c22 -21 20 -47 -4 -69 -17 -15 -24 -16 -45 -7 -29 14 -33 47 -8
74 20 22 37 23 57 2z m-1676 -66 c19 -19 14 -46 -8 -53 -40 -13 -67 34 -32 54
22 13 26 13 40 -1z m-429 -390 c11 -18 21 -59 24 -101 1 -10 7 -15 14 -13 7 3
13 -1 13 -10 0 -8 7 -26 16 -40 9 -13 17 -42 17 -64 0 -34 -7 -46 -50 -87
l-49 -48 -25 23 c-60 56 -77 76 -82 98 -2 13 -1 24 3 24 4 0 10 21 14 46 5 37
2 52 -15 75 -31 44 -11 105 40 121 27 8 67 -4 80 -24z m276 -138 c0 -18 -6
-26 -23 -28 -24 -4 -38 18 -28 44 3 9 15 14 28 12 17 -2 23 -10 23 -28z m763
-172 c28 -28 -6 -75 -40 -57 -18 9 -25 49 -11 62 10 11 38 8 51 -5z m-2457
-33 c12 4 19 2 19 -7 0 -7 9 -19 20 -26 11 -7 20 -23 20 -37 0 -14 5 -25 12
-25 9 0 9 -3 0 -12 -7 -7 -12 -22 -12 -33 0 -14 -13 -29 -40 -44 -23 -13 -46
-31 -52 -40 -10 -16 -12 -16 -33 3 -12 12 -38 33 -57 48 -32 24 -57 78 -37 78
5 0 9 6 9 14 0 23 47 73 75 80 14 4 25 11 25 17 0 6 7 3 16 -6 9 -9 24 -13 35
-10z m1277 -66 c17 0 35 -10 48 -27 24 -31 38 -88 24 -97 -6 -3 -10 -15 -10
-25 0 -12 -16 -30 -40 -45 -23 -14 -43 -32 -46 -40 -5 -11 -10 -10 -27 5 -12
10 -37 29 -56 42 -34 23 -58 73 -40 84 5 3 9 13 9 22 0 19 48 72 66 72 6 0 18
7 25 16 8 10 15 12 17 5 2 -6 16 -11 30 -12z m-790 -21 c18 -18 15 -46 -6 -57
-39 -21 -73 36 -34 58 22 13 26 13 40 -1z m397 -782 c18 -27 12 -49 -20 -70
-21 -14 -25 -13 -49 9 -27 25 -27 49 2 73 24 19 50 14 67 -12z m-4632 -73 c31
-36 25 -78 -14 -99 -27 -13 -35 -14 -56 -3 -34 18 -45 42 -34 73 18 45 75 61
104 29z m10908 -93 c25 0 59 -35 68 -68 13 -51 2 -78 -40 -101 -22 -13 -43
-29 -46 -37 -4 -12 -8 -11 -22 4 -9 9 -29 26 -44 35 -15 10 -32 29 -37 43 -17
42 18 103 68 118 12 4 22 13 23 19 0 9 2 8 6 0 2 -7 13 -13 24 -13z m4375 -39
c37 -42 35 -106 -4 -138 -15 -12 -37 -31 -49 -42 l-22 -19 -53 36 c-39 28 -54
45 -59 70 -3 17 -3 32 2 32 5 0 9 6 9 14 0 8 19 31 42 50 36 31 46 35 77 30
19 -4 45 -19 57 -33z m-11408 -79 c21 -27 14 -59 -18 -82 l-30 -21 -30 21
c-38 27 -39 61 -3 89 28 23 59 20 81 -7z m-2251 -228 c12 -19 11 -24 -6 -45
-16 -21 -22 -22 -45 -11 -31 14 -36 55 -8 71 24 15 42 10 59 -15z m12593 -48
c0 19 49 -41 54 -67 8 -42 -5 -68 -50 -98 l-39 -27 -42 29 c-47 31 -59 59 -45
98 17 43 76 81 105 67 9 -5 17 -6 17 -2z m-14966 -106 c30 -29 24 -69 -15
-101 -33 -27 -35 -27 -62 -11 -16 9 -33 25 -39 35 -15 28 0 71 30 90 30 18 57
14 86 -13z m16660 -63 c14 -3 54 -50 57 -67 5 -32 -15 -71 -47 -91 -19 -11
-34 -25 -34 -29 0 -5 -21 5 -46 22 -45 30 -76 79 -55 86 6 2 11 11 11 21 0 26
65 73 90 65 8 -3 19 -6 24 -7z m-14705 -361 c12 -13 35 -26 51 -30 38 -7 53
-52 25 -73 -28 -20 -44 -16 -76 18 -16 17 -35 29 -42 26 -7 -3 -23 5 -35 18
-19 20 -20 24 -6 43 20 29 55 28 83 -2z m6669 -279 c42 -34 34 -92 -17 -128
l-37 -26 -38 32 c-50 42 -52 77 -6 118 33 30 66 31 98 4z m-6478 -116 c0 -28
-28 -47 -48 -34 -24 15 -27 44 -7 59 22 17 55 1 55 -25z m-200 -145 c0 -29
-22 -39 -46 -21 -15 11 -16 15 -5 29 21 25 51 20 51 -8z m11978 -38 c2 -18 -4
-30 -22 -41 -23 -15 -26 -15 -50 4 -32 25 -32 34 -1 65 24 24 28 25 48 11 12
-8 23 -25 25 -39z m-12288 -97 c0 -29 -25 -45 -49 -31 -25 13 -26 27 -5 51 20
22 54 9 54 -20z m-226 -237 c24 -23 20 -53 -9 -66 -20 -9 -28 -8 -44 6 -21 19
-18 43 7 64 20 16 27 15 46 -4z m-231 -142 c32 -36 24 -82 -18 -109 l-34 -23
-36 34 c-19 18 -35 37 -34 42 2 24 17 46 44 63 33 20 56 17 78 -7z m8215 -91
c35 -43 37 -115 3 -126 -10 -3 -27 -14 -39 -25 -21 -20 -21 -20 -64 14 -39 29
-43 37 -41 71 3 42 14 59 52 79 30 15 70 10 89 -13z m7029 -121 c22 0 51 -33
54 -60 5 -55 -1 -69 -44 -97 l-42 -29 -40 29 c-49 35 -59 65 -36 108 18 37 71
72 86 58 5 -5 15 -9 22 -9z m-7762 -151 c13 -12 20 -34 21 -58 0 -33 -4 -41
-30 -57 -17 -9 -34 -22 -38 -27 -8 -13 -88 50 -89 71 -3 35 3 48 33 75 34 32
68 31 103 -4z m3263 -88 c40 -50 35 -101 -14 -132 -19 -11 -34 -25 -34 -29 0
-18 -90 52 -96 74 -19 77 95 147 144 87z m-3061 -81 c14 -29 4 -58 -28 -77
-23 -14 -28 -14 -52 2 -58 37 -16 128 48 105 11 -4 25 -17 32 -30z m-789 -176
c27 -18 28 -42 5 -84 -16 -27 -22 -30 -50 -25 -31 6 -53 -8 -33 -20 8 -5 6
-13 -6 -26 -16 -18 -15 -19 11 -29 22 -9 31 -7 46 6 18 16 19 16 19 1 0 -10 5
-17 10 -17 19 0 25 -4 41 -24 39 -51 30 -102 -24 -134 l-35 -20 -36 24 c-43
30 -56 51 -49 85 6 34 -16 53 -50 40 -14 -5 -28 -14 -31 -20 -4 -7 -13 -5 -24
4 -103 84 -142 100 -142 57 0 -12 -16 -26 -45 -40 -25 -12 -45 -26 -45 -32 0
-5 -10 -1 -22 9 -13 11 -34 28 -47 39 -28 22 -33 71 -10 98 24 29 68 51 94 46
13 -2 40 -20 60 -39 38 -37 76 -42 81 -10 3 20 31 46 50 47 6 0 17 7 24 15 10
12 16 13 27 4 10 -9 17 -9 25 -1 15 15 32 16 23 2 -12 -20 18 -9 39 14 19 21
53 45 66 46 3 0 16 -7 28 -16z m1668 -26 c25 -26 24 -86 -1 -104 -11 -8 -28
-21 -37 -29 -16 -13 -22 -12 -54 7 -46 27 -59 59 -39 98 29 56 94 70 131 28z
m5886 -92 c26 -30 15 -75 -24 -107 l-32 -27 -30 22 c-41 28 -46 36 -44 69 3
40 51 79 86 70 15 -3 35 -16 44 -27z m-7562 -16 c0 -5 -10 -10 -22 -10 -19 0
-20 2 -8 10 19 13 30 13 30 0z m3558 -51 c4 -19 -19 -31 -38 -19 -18 11 -4 42
17 38 10 -2 19 -10 21 -19z m1540 -8 c6 -37 -26 -52 -52 -25 -12 12 -13 20 -5
35 15 28 53 21 57 -10z m-3610 -53 c15 -32 9 -49 -28 -76 l-28 -21 -31 28
c-35 32 -33 60 6 91 30 23 62 14 81 -22z m-5352 -19 c27 -30 21 -69 -17 -100
l-33 -27 -33 25 c-48 37 -46 80 5 115 27 18 54 14 78 -13z m14276 16 c9 9 47
-41 49 -65 5 -53 -2 -67 -44 -97 l-43 -30 -41 36 c-23 20 -44 45 -47 56 -13
44 67 123 105 104 9 -5 18 -6 21 -4z m-9820 -57 c31 -24 27 -71 -7 -86 -21
-10 -30 -9 -50 4 -30 20 -32 47 -5 74 23 23 40 25 62 8z m3435 -449 c17 -36 6
-64 -36 -92 l-36 -24 -35 24 c-41 27 -51 49 -39 81 10 26 24 41 54 58 25 14
75 -11 92 -47z m783 -10 c9 -16 8 -26 -5 -45 -19 -29 -46 -31 -70 -4 -17 18
-17 21 -1 45 20 31 61 33 76 4z m-230 -14 c10 -12 9 -20 -4 -40 -19 -28 -34
-31 -61 -11 -17 12 -18 18 -7 40 13 30 52 35 72 11z m-2303 -22 c14 -20 13
-24 -11 -48 -22 -22 -28 -24 -46 -13 -28 18 -33 37 -15 65 20 29 51 27 72 -4z
m-4389 -116 c6 -5 12 -24 12 -41 0 -25 -7 -36 -30 -49 -27 -16 -31 -17 -54 -2
-44 29 -43 70 2 97 25 16 45 14 70 -5z m-4110 -83 c4 -27 -26 -40 -46 -20 -13
13 -13 18 -2 31 18 21 44 15 48 -11z m7175 -85 c26 0 65 -46 68 -80 5 -51 -2
-65 -41 -89 -22 -13 -42 -31 -45 -39 -4 -10 -9 -12 -13 -5 -4 5 -24 23 -45 39
-22 16 -43 39 -48 52 -15 39 22 103 69 117 12 4 22 13 23 19 0 9 2 8 6 0 2 -7
14 -13 26 -14z m-8809 -29 c7 0 25 -13 40 -29 22 -23 29 -40 30 -78 2 -26 -2
-54 -7 -61 -5 -7 -7 -15 -4 -18 8 -8 -22 -42 -61 -69 l-34 -23 -33 36 c-18 21
-34 42 -35 47 -1 6 -11 22 -21 37 -10 14 -19 35 -19 46 0 49 37 103 79 117 12
3 21 11 21 16 0 6 7 3 16 -5 8 -9 21 -16 28 -16z m7504 -43 c4 -34 -37 -64
-66 -48 -38 20 -35 67 6 90 24 14 56 -9 60 -42z m-470 -119 c28 -28 3 -66 -33
-52 -25 10 -12 64 15 64 3 0 11 -5 18 -12z m10571 -196 c19 -21 22 -32 17 -66
-4 -22 -8 -41 -9 -41 -1 0 -19 -13 -39 -28 l-37 -27 -40 27 c-22 16 -44 39
-49 53 -11 32 11 76 51 101 38 22 72 16 106 -19z m-9891 -148 c31 -22 26 -63
-10 -83 -24 -14 -28 -14 -47 3 -27 25 -27 61 1 80 28 20 28 20 56 0z m-541
-138 c28 -27 19 -77 -20 -102 l-33 -22 -34 28 c-31 25 -33 30 -24 61 15 53 74
71 111 35z m-4970 -155 c4 -14 6 -34 5 -44 0 -9 6 -29 14 -45 19 -36 18 -48
-7 -70 -40 -38 -86 1 -75 62 3 19 0 38 -9 50 -20 26 -19 42 4 65 26 26 59 17
68 -18z m5541 23 c27 -19 28 -38 2 -64 -25 -25 -35 -25 -60 0 -21 21 -18 46 8
68 20 15 23 15 50 -4z m-4618 -56 c22 0 61 -53 61 -85 2 -48 -6 -61 -54 -98
l-46 -36 -48 34 c-53 37 -68 74 -50 115 17 40 81 84 107 75 8 -3 22 -6 30 -5z
m9988 -60 c17 -17 15 -42 -6 -61 -16 -15 -20 -15 -40 -1 -26 18 -28 37 -6 58
19 19 36 20 52 4z m-1076 -45 c42 -37 29 -98 -26 -127 l-35 -19 -36 27 c-39
30 -46 66 -19 104 29 42 78 48 116 15z"/>
</g>
</svg>
